<?xml version="1.0" standalone="no"?><!DOCTYPE svg PUBLIC "-//W3C//DTD SVG 1.1//EN" "http://www.w3.org/Graphics/SVG/1.1/DTD/svg11.dtd"><svg t="1680417443498" class="icon" viewBox="0 0 1024 1024" version="1.1" xmlns="http://www.w3.org/2000/svg" p-id="2929" width="16" height="16" xmlns:xlink="http://www.w3.org/1999/xlink"><path d="M352 576a32 32 0 0 1 32-32h32a32 32 0 0 1 32 32v64a32 32 0 0 1-32 32h-32a32 32 0 0 1-32-32v-64zM608 544a32 32 0 0 0-32 32v64a32 32 0 0 0 32 32h32a32 32 0 0 0 32-32v-64a32 32 0 0 0-32-32h-32z" fill="#ffffff" p-id="2930"></path><path d="M544 215.424a64 64 0 1 0-64 0V320H288a96 96 0 0 0-96 96v416a96 96 0 0 0 96 96h448a96 96 0 0 0 96-96V416a96 96 0 0 0-96-96h-192V215.424zM288 384h448a32 32 0 0 1 32 32v416a32 32 0 0 1-32 32H288a32 32 0 0 1-32-32V416a32 32 0 0 1 32-32zM64 560A48 48 0 0 1 112 512a16 16 0 0 1 16 16v224a16 16 0 0 1-16 16A48 48 0 0 1 64 720v-160zM912 512a16 16 0 0 0-16 16v224a16 16 0 0 0 16 16 48 48 0 0 0 48-48v-160a48 48 0 0 0-48-48z" fill="#ffffff" p-id="2931"></path></svg>